<?xml version="1.0" encoding="UTF-8"?>
<svg xmlns="http://www.w3.org/2000/svg" version="1.1" viewBox="0 0 841.89 595.28">
  <defs>
    <style>
      .cls-1 {
        fill: #fff268;
      }
    </style>
  </defs>
  <!-- Generator: Adobe Illustrator 28.7.1, SVG Export Plug-In . SVG Version: 1.2.0 Build 142)  -->
  <g>
    <g id="Ebene_1">
      <g>
        <circle class="cls-1" cx="420.94" cy="297.64" r="205.01"/>
        <polygon class="cls-1" points="420.94 0 445.26 42.44 469.86 84.72 420.94 84.56 372.03 84.72 396.63 42.44 420.94 0"/>
        <polygon class="cls-1" points="719.57 297.64 677.12 321.96 634.84 346.55 635.01 297.64 634.84 248.72 677.12 273.32 719.57 297.64"/>
        <polygon class="cls-1" points="629.38 79.76 616.57 126.96 604.06 174.25 569.59 139.55 534.89 105.08 582.18 92.57 629.38 79.76"/>
        <polygon class="cls-1" points="636.69 510.55 589.49 497.74 542.2 485.23 576.9 450.76 611.37 416.05 623.88 463.35 636.69 510.55"/>
        <polygon class="cls-1" points="197.32 502.65 210.14 455.44 222.65 408.15 257.12 442.85 291.82 477.33 244.53 489.83 197.32 502.65"/>
        <polygon class="cls-1" points="207.45 81.31 254.66 94.13 301.95 106.63 267.25 141.11 232.77 175.81 220.27 128.52 207.45 81.31"/>
        <polygon class="cls-1" points="122.9 297.64 165.34 273.32 207.62 248.72 207.46 297.64 207.62 346.55 165.34 321.96 122.9 297.64"/>
        <polygon class="cls-1" points="420.94 595.28 396.63 552.83 372.03 510.55 420.94 510.71 469.86 510.55 445.26 552.83 420.94 595.28"/>
      </g>
    </g>
  </g>
</svg>