<?xml version="1.0" encoding="UTF-8"?>
<svg xmlns="http://www.w3.org/2000/svg" version="1.1" viewBox="0 0 640 55">
  <!-- Generator: Adobe Illustrator 29.1.0, SVG Export Plug-In . SVG Version: 2.1.0 Build 142)  -->
  <defs>
    <style>
      .st0 {
        fill: #ff9;
      }

      .st1 {
        fill: #003;
      }

      .st2 {
        fill: #fecb37;
      }

      .st3 {
        fill: #34669a;
      }

      .st4 {
        fill: #f90;
      }

      .st5 {
        fill: #336;
      }

      .st6 {
        fill: #c09;
      }
    </style>
  </defs>
  <g id="Hintergrundebene">
    <rect class="st0" width="640" height="55"/>
  </g>
  <g id="Zeichenebene">
    <polygon class="st1" points="0 0 291.92 0 137.81 13.84 156.3 26.85 41.23 55 0 55 0 0"/>
    <polygon class="st4" points="137.81 55 211.1 33.01 197.4 19.32 320 0 210 55 137.81 55"/>
    <polygon class="st5" points="324.79 7.67 267.26 55 334.38 55 324.79 7.67"/>
    <polygon class="st2" points="337.12 15.21 343.97 55 372.05 55 337.12 15.21"/>
    <polygon class="st3" points="334.38 2.88 395.34 41.23 382.33 48.08 391.92 55 555 55 461.78 35.1 483.7 23.42 334.38 2.88"/>
    <polygon class="st6" points="341.92 0 640 0 640 39.18 550.14 27.57 567.95 19.66 341.92 0"/>
  </g>
</svg>